<svg xmlns="http://www.w3.org/2000/svg" xmlns:xlink="http://www.w3.org/1999/xlink" width="46.885" height="46.847" viewBox="0 0 46.885 46.847"><defs><style>.a{fill:url(#a);}.b{fill:#fff;}</style><linearGradient id="a" y1="0.5" x2="1" y2="0.5" gradientUnits="objectBoundingBox"><stop offset="0" stop-color="#fc7a66"/><stop offset="1" stop-color="#ff698c"/></linearGradient></defs><g transform="translate(0)"><path class="a" d="M619.258,1786.254a12.539,12.539,0,0,0,1.346-1.767,29.383,29.383,0,0,0,0-29.843,12.537,12.537,0,0,0-1.346-1.766,12.83,12.83,0,0,0-4.206-3.323,29.682,29.682,0,0,0-27.64,0,12.814,12.814,0,0,0-4.206,3.323,12.519,12.519,0,0,0-1.346,1.766,29.382,29.382,0,0,0,0,29.843,12.521,12.521,0,0,0,1.346,1.767,12.82,12.82,0,0,0,4.206,3.323,29.684,29.684,0,0,0,27.64,0A12.836,12.836,0,0,0,619.258,1786.254Z" transform="translate(-577.79 -1746.142)"/><path class="b" d="M607.2,1775.587l-.464-3.961a2.233,2.233,0,0,0-4.23-.71l-1.394,2.9a2.233,2.233,0,0,1-2.012,1.265h-.664a2.232,2.232,0,0,1-2.008-1.256l-1.452-2.983a2.233,2.233,0,0,0-4.227.719l-.47,4.027a2.236,2.236,0,0,1-2.219,1.976h0a2.234,2.234,0,0,1-2.216-2.509l2.15-17.446a2.236,2.236,0,0,1,2.218-1.962h.358a2.233,2.233,0,0,1,2.021,1.283l4.09,8.686a2.283,2.283,0,0,0,4.136-.008l4.043-8.671a2.236,2.236,0,0,1,2.025-1.29h.413a2.234,2.234,0,0,1,2.217,1.965l2.125,17.446a2.234,2.234,0,0,1-2.216,2.506h0A2.234,2.234,0,0,1,607.2,1775.587Z" transform="translate(-575.296 -1743.181)"/></g></svg>